<svg width="44" height="42" viewBox="0 0 44 42" fill="none" xmlns="http://www.w3.org/2000/svg">
<path fill-rule="evenodd" clip-rule="evenodd" d="M39.1262 15.3679C40.3184 16.3743 42.1796 19.7306 42.9611 21.2829C42.1356 21.1076 40.149 20.8671 38.8068 21.3073C37.4646 21.7474 35.8992 23.6977 35.2842 24.6179C34.6695 25.28 34.1721 25.8565 33.7345 26.3636C31.8066 28.5979 28.0168 30.0597 23.4998 31.0001C15.429 32.6805 1.99151 23.0482 0.145335 21.4981C1.0365 21.9492 11.2836 22.8256 13.5632 22.524C14.4344 22.4088 15.9758 22.0195 17.7078 21.4948C17.1951 19.6737 16.7644 16.736 17.5438 12.3365C18.9907 4.16928 30.2266 1.17031 29.1619 2.3205C27.9269 3.65456 27.2504 4.99131 26.9216 8.29517C26.6713 10.8097 28.1197 13.7068 29.4583 15.7606C30.5163 14.9458 31.5265 14.2145 32.657 13.7729C35.029 12.8465 37.6359 14.1099 39.1262 15.3679Z" fill="#003E9B"/>
</svg>
