<svg width="24" height="35" viewBox="0 0 24 35" fill="none" xmlns="http://www.w3.org/2000/svg">
<path d="M9.85311 8.07592C9.85311 11.5743 7.34173 12.7513 5.92908 12.7513C4.20251 12.7513 1.96103 11.0867 2.47593 7.62347C2.78986 5.512 5.92908 0.0825195 5.92908 0.0825195C5.92908 0.0825195 9.85311 5.96446 9.85311 8.07592Z" fill="#003E9B"/>
<path d="M23.2672 18.9929C23.2672 22.4913 20.7558 23.6683 19.3431 23.6683C17.6166 23.6683 15.3751 22.0037 15.89 18.5405C16.2039 16.429 19.3431 10.9995 19.3431 10.9995C19.3431 10.9995 23.2672 16.8814 23.2672 18.9929Z" fill="#003E9B"/>
<path d="M8.36288 29.5002C8.36288 32.9986 5.8515 34.1756 4.43885 34.1756C2.71228 34.1756 0.470797 32.511 0.985699 29.0478C1.29963 26.9363 4.43885 21.5068 4.43885 21.5068C4.43885 21.5068 8.36288 27.3888 8.36288 29.5002Z" fill="#003E9B"/>
</svg>
