<svg width="42" height="30" viewBox="0 0 42 30" fill="none" xmlns="http://www.w3.org/2000/svg">
<path d="M6.63379 9.08548H22C23.4904 9.08548 26.0987 7.96764 26.4713 5.73197C26.906 3.12369 24.2357 2.00586 23.1178 2.00586C22 2.00586 20.8822 3.12369 20.8822 3.86892" stroke="#003E9B" stroke-width="2.23567" stroke-linecap="round" stroke-linejoin="round"/>
<path d="M6.63379 21H25.637C27.1274 21 29.7357 22.1178 30.1083 24.3535C30.543 26.9618 27.8726 28.0796 26.7548 28.0796C25.637 28.0796 24.5191 26.9618 24.5191 26.2165" stroke="#003E9B" stroke-width="2.23567" stroke-linecap="round" stroke-linejoin="round"/>
<path d="M2 15H36.0032C37.4936 15 40.1019 16.1178 40.4745 18.3535C40.9092 20.9618 38.2389 22.0796 37.121 22.0796C36.0032 22.0796 34.8853 20.9618 34.8853 20.2165" stroke="#003E9B" stroke-width="2.23567" stroke-linecap="round" stroke-linejoin="round"/>
</svg>
